<svg width="123" height="161" viewBox="0 0 123 161" fill="none" xmlns="http://www.w3.org/2000/svg">
<g id="smoke">
<path id="Vector" d="M22.0481 51.5798C14.9711 47.7564 6.22172 51.9262 2.69513 58.6938C-1.5945 66.9258 1.96104 76.8222 6.96313 83.8582C12.161 91.1697 19.2157 97.2047 22.6855 105.654C26.0049 113.605 26.3985 122.476 23.7964 130.69C21.1943 138.905 15.765 145.931 8.47278 150.521C5.21806 152.58 8.22508 157.774 11.5011 155.702C18.6531 151.234 24.3113 144.736 27.7535 137.037C31.1956 129.339 32.2654 120.79 30.8264 112.48C30.0961 108.171 28.7035 104.001 26.6979 100.118C24.5233 96.1547 21.9038 92.4525 18.8901 89.0831C13.6847 82.9226 7.13198 76.1311 6.80536 67.5599C6.74561 66.4481 6.82317 65.3331 7.03625 64.2402C7.1922 63.4767 7.42418 62.7308 7.72876 62.0135C8.45638 60.4735 9.53611 59.1263 10.8807 58.0807C12.1273 57.0865 13.6022 56.4187 15.1719 56.1378C16.488 55.9426 17.8324 56.1601 19.0198 56.7606C22.4173 58.5961 25.4502 53.4177 22.0481 51.5798V51.5798Z" fill="#E6E6E6"/>
<path id="Vector_2" d="M112.331 87.8736C109.318 86.9052 106.098 86.7722 103.015 87.4887C99.9322 88.2053 97.1012 89.7446 94.8237 91.9427C93.6465 93.1532 92.7746 94.6267 92.2801 96.2411C91.7855 97.8556 91.6826 99.5646 91.9798 101.227C92.5517 104.863 94.8473 108.092 97.3378 110.695C102.211 115.787 109.031 119.079 113.117 124.925C114.929 127.416 116.066 130.334 116.417 133.394C116.627 136.143 116.123 138.901 114.954 141.398C111.905 147.594 105.854 151.808 99.4727 154.521C97.9813 155.155 97.6526 157.353 98.3965 158.625C98.8123 159.297 99.4701 159.783 100.234 159.983C100.998 160.183 101.809 160.083 102.501 159.702C114.245 154.709 125.11 143.527 121.871 129.789C120.167 122.563 114.945 117.463 109.321 113.029C106.528 110.981 103.89 108.73 101.429 106.294C99.4843 104.228 97.464 101.408 97.8211 98.6088C97.9643 97.6354 98.4406 96.7419 99.169 96.0805C100.052 95.273 101.055 94.6067 102.141 94.1052C103.473 93.4667 104.919 93.0985 106.394 93.022C107.87 92.9455 109.345 93.1621 110.736 93.6593C111.503 93.8633 112.32 93.758 113.01 93.3662C113.7 92.9743 114.209 92.3271 114.427 91.564C114.622 90.7973 114.513 89.9848 114.122 89.2968C113.732 88.6089 113.09 88.0988 112.331 87.8736V87.8736Z" fill="#E6E6E6"/>
<path id="Vector_3" d="M66.6552 2.52429C64.8674 0.997012 62.6104 0.12794 60.26 0.061676C58.0307 0.103486 55.8636 0.804165 54.0319 2.07541C49.8946 5.08084 46.9678 9.466 45.7794 14.4397C42.7475 26.0531 46.7025 38.5704 52.1972 48.7983C54.975 53.969 58.2104 58.8767 61.0067 64.0369C63.7027 68.9723 65.7726 74.2248 67.1684 79.6725C70.0151 90.843 70.2692 102.517 67.9113 113.8C65.5099 125.032 60.4588 136.153 51.8656 143.902C51.3029 144.464 50.9869 145.228 50.9869 146.023C50.9869 146.819 51.303 147.582 51.8656 148.145C52.4282 148.707 53.1912 149.023 53.9869 149.023C54.7825 149.023 55.5456 148.707 56.1082 148.145C63.7354 141.267 68.836 131.832 71.9152 122.13C75.3124 111.173 76.3059 99.6118 74.8281 88.2355C74.1601 82.5704 72.8702 76.996 70.9818 71.6133C68.9355 66.1909 66.3801 60.9746 63.3499 56.0342C57.7105 46.4994 51.7072 36.8557 50.8909 25.5026C50.4894 19.9197 51.188 14.1002 54.6416 9.61053C54.4526 9.85621 54.7931 9.43182 54.7946 9.43005C55.0039 9.17932 55.221 8.93528 55.446 8.69797C55.8745 8.23804 56.3351 7.80917 56.8244 7.41455C56.7202 7.4971 56.4547 7.6744 56.9381 7.33926C57.1786 7.17257 57.4238 7.01278 57.676 6.8645C57.8812 6.74391 58.0921 6.63695 58.302 6.52557C58.4267 6.46193 58.5531 6.40199 58.6812 6.34573C58.3894 6.47155 58.4058 6.47277 58.7306 6.34937C58.9653 6.27581 60.1275 6.02468 59.4825 6.10617C59.6976 6.08051 59.9139 6.06645 60.1305 6.06406C60.2223 6.06241 61.0315 6.10384 60.6363 6.06058C60.174 6.00999 61.0018 6.14275 61.0078 6.14423C61.2668 6.20745 61.5212 6.28806 61.7694 6.3855C61.1452 6.13602 62.7931 7.06261 62.4127 6.76691C62.9873 7.30638 63.7459 7.60666 64.534 7.60666C65.3222 7.60666 66.0807 7.30638 66.6553 6.76691C67.6904 5.73177 67.9418 3.52431 66.6553 2.52426L66.6552 2.52429Z" fill="#E6E6E6"/>
</g>
</svg>
